<svg xmlns="http://www.w3.org/2000/svg" viewBox="0 0 64 64" width="64" height="64">
  <!-- Base blue star -->
  <path d="M32 4 L38.5 22.5 L58 24 L43 36.5 L47 56 L32 47 L17 56 L21 36.5 L6 24 L25.5 22.5 Z" fill="#2563eb" stroke="#1e40af" stroke-width="0.5"/>
  
  <!-- Middle lighter blue star -->
  <path d="M32 8 L37 22 L50 23.5 L38 33.5 L41.5 52 L32 44.5 L22.5 52 L26 33.5 L14 23.5 L27 22 Z" fill="#3b82f6" stroke="#2563eb" stroke-width="0.3"/>
  
  <!-- Top light gray star -->
  <path d="M32 12 L35.5 21.5 L42 22.5 L33 30.5 L36 48 L32 42 L28 48 L31 30.5 L22 22.5 L28.5 21.5 Z" fill="#94a3b8" stroke="#64748b" stroke-width="0.2"/>
</svg>



